<?xml version="1.0" standalone="no"?>
<!DOCTYPE svg PUBLIC "-//W3C//DTD SVG 20010904//EN"
 "http://www.w3.org/TR/2001/REC-SVG-20010904/DTD/svg10.dtd">
<svg version="1.0" xmlns="http://www.w3.org/2000/svg"
 width="426.000000pt" height="426.000000pt" viewBox="0 0 426.000000 426.000000"
 preserveAspectRatio="xMidYMid meet">
<metadata>
Created by potrace 1.14, written by Peter Selinger 2001-2017
</metadata>
<g transform="translate(0.000000,426.000000) scale(0.100000,-0.100000)"
fill="#000000" stroke="none">
<path d="M3276 3536 c-8 -19 -31 -79 -52 -135 l-37 -101 -1292 0 -1292 0 -6
-82 c-4 -46 -7 -104 -7 -130 l0 -48 1524 0 c1207 0 1526 -3 1533 -12 6 -7 90
-526 188 -1153 97 -627 179 -1142 181 -1144 2 -2 4 2 4 10 0 8 34 588 76 1289
l77 1275 -43 133 -43 132 -398 0 -399 0 -14 -34z"/>
<path d="M90 2950 c0 -6 83 -543 185 -1194 102 -651 185 -1189 185 -1195 0 -8
479 -11 1751 -11 l1752 0 -6 28 c-2 15 -87 557 -188 1205 l-184 1177 -1747 0
c-1172 0 -1748 -3 -1748 -10z m1230 -290 c206 -60 357 -194 420 -374 37 -104
46 -204 26 -303 -35 -179 -107 -294 -404 -648 l-210 -250 421 -8 c232 -5 424
-11 426 -13 2 -2 12 -57 22 -121 10 -65 20 -133 23 -150 l5 -33 -682 7 c-375
3 -683 7 -685 8 -8 7 -39 251 -33 261 3 7 132 163 286 349 308 370 349 425
403 535 35 70 37 80 36 165 -1 97 -11 131 -62 201 -20 27 -51 52 -89 70 -49
25 -70 29 -138 29 -66 0 -88 -5 -125 -25 -79 -44 -130 -157 -114 -253 l6 -37
-199 2 -198 3 -3 77 c-9 251 164 464 428 523 99 22 342 14 440 -15z m2205
-902 c3 -13 39 -232 80 -488 41 -256 78 -477 81 -492 l6 -28 -96 0 c-53 0 -96
4 -96 9 0 5 -5 22 -10 36 l-10 27 -35 -31 c-96 -84 -270 -59 -379 55 -83 87
-129 217 -130 370 0 82 2 97 29 150 40 78 100 116 190 122 70 5 146 -15 189
-49 14 -11 26 -15 26 -9 0 6 -11 81 -25 166 -14 85 -25 161 -25 169 0 12 19
15 100 15 95 0 100 -1 105 -22z m-869 -296 c55 -28 98 -79 122 -144 11 -29 36
-159 57 -288 20 -129 38 -243 41 -252 5 -16 -4 -18 -100 -18 -61 0 -106 4
-106 10 0 31 -73 470 -82 493 -18 47 -53 67 -119 67 -50 0 -63 -4 -90 -28
l-31 -28 36 -239 c21 -132 39 -248 42 -257 5 -16 -4 -18 -98 -18 l-104 0 -53
343 c-29 188 -55 350 -57 360 -5 16 2 18 92 15 l97 -3 11 -37 11 -37 25 26
c14 14 43 35 65 45 55 26 182 21 241 -10z"/>
<path d="M3187 1310 c-37 -29 -51 -81 -43 -161 12 -137 70 -229 151 -245 77
-14 145 23 145 79 0 53 -41 271 -55 293 -34 52 -150 72 -198 34z"/>
</g>
</svg>
